<?xml version="1.0" encoding="utf-8"?>
<!-- Generator: Adobe Illustrator 24.2.1, SVG Export Plug-In . SVG Version: 6.00 Build 0)  -->
<svg version="1.1"
	 id="Layer_1" text-rendering="geometricPrecision" shape-rendering="geometricPrecision" image-rendering="optimizeQuality"
	 xmlns="http://www.w3.org/2000/svg" xmlns:xlink="http://www.w3.org/1999/xlink" x="0px" y="0px" viewBox="0 0 4937.6 4945.8"
	 style="enable-background:new 0 0 4937.6 4945.8;" xml:space="preserve">
<style type="text/css">
	.st0{fill:none;stroke:#000000;stroke-width:190;stroke-miterlimit:10;}
</style>
<path d="M1029.1,1337.2h2951c53,0,100,22,135,56c35,35,56,83,56,135v2028c0,40-12,77-33,107c-4,10-10,19-18,27c-5,5-11,9-18,13
	c-33,28-76,45-122,45h-2951c-53,0-100-22-135-56c-35-35-56-82-56-135v-2028c0-53,21-100,56-135s82-56,135-56V1337.2z M984.1,3476.2
	l1034-1037l-1034-843V3476.2z M2132.1,2532.2l-1066,1069h2867l-1019-1069l-336,286c-26,23-66,24-94,1l-353-287H2132.1z
	 M3026.1,2437.2l998,1047v-1897L3026.1,2437.2z M1078.1,1484.2l1452,1184l1389-1184H1078.1z"/>
<circle class="st0" cx="2469.1" cy="2473.2" r="2365.6"/>
</svg>
