<?xml version="1.0" encoding="utf-8"?>
<!-- Generator: Adobe Illustrator 24.2.1, SVG Export Plug-In . SVG Version: 6.00 Build 0)  -->
<svg version="1.1" id="Layer_1" xmlns="http://www.w3.org/2000/svg" xmlns:xlink="http://www.w3.org/1999/xlink" x="0px" y="0px"
	 viewBox="0 0 500 500" style="enable-background:new 0 0 500 500;" xml:space="preserve">
<style type="text/css">
	.st0{fill:#050505;}
	.st1{fill:#FFFFFF;}
</style>
<path class="st0" d="M0,500h500V-6H0V500z"/>
<path class="st1" d="M368.1,63.03h32.01v159.85H368.1V63.03z M168.03,169.76c0,29.99-22.54,53.12-52.02,53.12
	c-29.42,0-52.51-23.13-52.51-53.12V63.03h31.23v106.73c0,12.12,9.49,21.89,21.28,21.89c11.85,0,21.26-9.77,21.26-21.89V63.03h30.76
	V169.76L168.03,169.76z M315.95,431.09H210.73V271.3h31.9v127.29h73.32L315.95,431.09L315.95,431.09z M315.95,222.87h-31.97
	l-41.34-91.58v91.58h-31.89V63.02h31.89l41.35,91.43V63.02h31.97L315.95,222.87L315.95,222.87z M115.98,271.31
	c-29.38,0-52.49,23.89-52.49,52.8v54.19c0,28.53,23.11,52.8,52.49,52.8c3.56,0,7.01-0.38,10.32-1l10.97,33.36h30.75l-14.56-48.02
	c8.53-9.89,14.56-23.35,14.56-37.15v-54.19C168.02,295.19,145.48,271.31,115.98,271.31 M137.26,378.3c0,10.51-9.41,20.3-21.28,20.3
	c-11.77,0-21.26-9.79-21.26-20.3V324.1c-0.02-11.88,9.45-21.52,21.16-21.53c0.03,0,0.07,0,0.1,0c11.87,0,21.28,9.59,21.28,21.53
	L137.26,378.3L137.26,378.3z M384.05,271.31c-29.46,0-52.05,23.89-52.05,52.8v54.19c0,28.53,22.6,52.8,52.05,52.8
	c29.4,0,52.04-24.27,52.04-52.8v-54.19C436.09,295.19,413.45,271.31,384.05,271.31 M405.39,378.3c0,10.51-9.63,20.3-21.34,20.3
	c-11.77,0-21.34-9.79-21.34-20.3V324.1c0-11.94,9.57-21.53,21.34-21.53c11.71,0,21.34,9.59,21.34,21.53V378.3z"/>
</svg>
