<?xml version="1.0" encoding="utf-8"?>
<!-- Generator: Adobe Illustrator 24.2.1, SVG Export Plug-In . SVG Version: 6.00 Build 0)  -->
<svg version="1.1" id="Layer_1" xmlns="http://www.w3.org/2000/svg" xmlns:xlink="http://www.w3.org/1999/xlink" x="0px" y="0px"
	 viewBox="0 0 2500 2493" style="enable-background:new 0 0 2500 2493;" xml:space="preserve">
<style type="text/css">
	.st0{fill:#050505;}
	.st1{fill:#FFFFFF;}
</style>
<path class="st0" d="M0.25,1038.63h1469.13V0H0.25V1038.63z"/>
<path class="st1" d="M1081.83,141.69h94.05V469.8h-94.05V141.69z M493.96,360.78c0,61.56-66.23,109.03-152.84,109.03
	c-86.43,0-154.28-47.48-154.28-109.03V141.7h91.75v219.07c0,24.88,27.88,44.94,62.54,44.94c34.81,0,62.46-20.06,62.46-44.94V141.7
	h90.37V360.78L493.96,360.78z M928.58,897.18H619.44V569.2h93.72v261.27h215.43L928.58,897.18L928.58,897.18z M928.58,469.78h-93.94
	L713.16,281.8v187.97h-93.71V141.67h93.71l121.49,187.68V141.67h93.94V469.78L928.58,469.78z M341.03,569.21
	c-86.32,0-154.22,49.03-154.22,108.38v111.24c0,58.56,67.9,108.37,154.22,108.37c10.46,0,20.61-0.78,30.32-2.05l32.22,68.48h90.36
	l-42.79-98.56c25.06-20.3,42.79-47.92,42.79-76.25V677.59C493.93,618.24,427.7,569.21,341.03,569.21 M403.57,788.82
	c0,21.57-27.66,41.67-62.54,41.67c-34.58,0-62.47-20.1-62.47-41.67V677.58c-0.05-24.38,27.78-44.17,62.17-44.2c0.1,0,0.2,0,0.29,0
	c34.87,0,62.54,19.69,62.54,44.2L403.57,788.82L403.57,788.82z M1128.69,569.21c-86.55,0-152.95,49.03-152.95,108.38v111.24
	c0,58.56,66.4,108.37,152.95,108.37c86.38,0,152.9-49.81,152.9-108.37V677.59C1281.59,618.24,1215.08,569.21,1128.69,569.21
	 M1191.4,788.82c0,21.57-28.3,41.67-62.71,41.67c-34.58,0-62.7-20.1-62.7-41.67V677.58c0-24.51,28.12-44.2,62.7-44.2
	c34.41,0,62.71,19.69,62.71,44.2V788.82z"/>
</svg>
